<?xml version="1.0" standalone="no"?>
<!DOCTYPE svg PUBLIC "-//W3C//DTD SVG 20010904//EN"
 "http://www.w3.org/TR/2001/REC-SVG-20010904/DTD/svg10.dtd">
<svg version="1.0" xmlns="http://www.w3.org/2000/svg"
 width="122.000000pt" height="122.000000pt" viewBox="0 0 122.000000 122.000000"
 preserveAspectRatio="xMidYMid meet">
<metadata>
Created by potrace 1.14, written by Peter Selinger 2001-2017
</metadata>
<g transform="translate(0.000000,122.000000) scale(0.100000,-0.100000)"
fill="#000000" stroke="none">
<path d="M310 1128 c-6 -7 -43 -67 -82 -133 -39 -66 -104 -176 -144 -244 -41
-68 -74 -131 -74 -141 0 -14 278 -489 301 -515 8 -8 285 -8 529 0 95 3 86 0
103 32 8 16 71 130 140 254 70 124 127 235 127 245 -1 16 -270 468 -300 502
-8 9 -81 12 -300 12 -219 0 -292 -3 -300 -12z"/>
</g>
</svg>
